<?xml version="1.0" standalone="no"?>
<!DOCTYPE svg PUBLIC "-//W3C//DTD SVG 20010904//EN"
 "http://www.w3.org/TR/2001/REC-SVG-20010904/DTD/svg10.dtd">
<svg version="1.0" xmlns="http://www.w3.org/2000/svg"
 width="800.000000pt" height="800.000000pt" viewBox="0 0 800.000000 800.000000"
 preserveAspectRatio="xMidYMid meet">
<metadata>
Created by potrace 1.16, written by Peter Selinger 2001-2019
</metadata>
<g transform="translate(0.000000,800.000000) scale(0.100000,-0.100000)"
fill="#000000" stroke="none">
<path d="M2806 5705 c-66 -27 -125 -79 -161 -140 -13 -22 -53 -141 -90 -265
-37 -124 -114 -378 -169 -564 l-102 -339 -46 -14 c-104 -30 -191 -118 -223
-226 -22 -74 -22 -1039 0 -1113 31 -106 105 -186 207 -222 l48 -17 0 -188 c0
-200 6 -235 53 -286 48 -52 87 -61 277 -61 190 0 229 9 277 61 46 51 53 86 53
284 l0 185 1070 0 1070 0 0 -185 c0 -198 7 -233 53 -284 48 -52 87 -61 277
-61 190 0 229 9 277 61 47 51 53 86 53 286 l0 188 48 17 c102 36 176 116 207
222 22 74 22 1039 0 1113 -32 108 -119 196 -223 226 l-46 14 -102 339 c-55
186 -132 440 -169 564 -37 124 -78 243 -90 266 -35 60 -104 118 -169 143 -57
21 -57 21 -1189 21 l-1132 0 -59 -25z m2351 -126 c24 -12 55 -36 68 -53 18
-23 77 -205 205 -632 118 -393 186 -603 197 -611 9 -7 26 -13 37 -13 80 0 174
-70 195 -145 15 -55 15 -995 0 -1050 -21 -76 -115 -145 -196 -145 -13 0 -32
-9 -43 -20 -19 -19 -20 -33 -20 -245 0 -288 17 -265 -200 -265 -217 0 -200
-23 -200 265 0 212 -1 226 -20 245 -20 20 -33 20 -1180 20 -1147 0 -1160 0
-1180 -20 -19 -19 -20 -33 -20 -245 0 -288 17 -265 -200 -265 -217 0 -200 -23
-200 265 0 212 -1 226 -20 245 -11 11 -30 20 -42 20 -82 0 -176 69 -197 145
-15 55 -15 995 0 1050 21 75 115 145 195 145 11 0 28 6 37 13 12 8 78 213 197
611 128 428 187 608 204 631 14 18 44 42 68 54 l43 21 1114 0 c1112 0 1115 0
1158 -21z"/>
<path d="M2610 4108 c-36 -14 -74 -40 -112 -78 -48 -48 -60 -68 -79 -130 -64
-211 73 -412 292 -428 212 -15 374 157 348 371 -14 117 -79 206 -188 259 -67
32 -188 35 -261 6z m198 -124 c164 -68 164 -300 0 -369 -92 -38 -205 2 -249
87 -48 94 -26 198 54 255 23 17 49 33 57 36 30 11 101 7 138 -9z"/>
<path d="M5164 4116 c-148 -48 -232 -179 -222 -347 4 -66 10 -86 39 -135 115
-194 382 -220 534 -52 147 163 89 431 -113 521 -58 25 -180 33 -238 13z m179
-130 c101 -44 151 -164 109 -259 -35 -80 -104 -127 -184 -127 -76 0 -155 51
-184 119 -17 40 -18 118 -3 158 35 94 169 150 262 109z"/>
<path d="M3376 3715 c-115 -41 -190 -167 -172 -286 15 -100 98 -193 198 -220
24 -6 252 -9 620 -7 l583 3 55 31 c181 103 184 348 5 459 l-48 30 -601 2
c-497 2 -608 0 -640 -12z m1237 -145 c63 -55 72 -125 25 -185 -43 -55 -41 -55
-638 -55 -597 0 -595 0 -638 55 -47 60 -38 130 25 185 l34 30 579 0 579 0 34
-30z"/>
</g>
</svg>
